<svg xmlns="http://www.w3.org/2000/svg" enable-background="new 0 0 32 32" viewBox="0 0 32 32" id="digital-ocean">
  <path fill="#F5E6FE" d="M26,32H6c-3.314,0-6-2.686-6-6V6c0-3.314,2.686-6,6-6h20c3.314,0,6,2.686,6,6v20C32,29.314,29.314,32,26,32z"></path>
  <rect width="2.374" height="2.373" x="10.545" y="20.91" fill="#D9A4FC"></rect>
  <path fill="#BE63F9" d="M11.098,16c0-3.288,3.254-5.83,6.714-4.575c1.28,0.464,2.301,1.484,2.767,2.764c1.252,3.455-1.283,6.707-4.568,6.711v-3.08h-3.09v3.09H16V24c5.239,0,9.317-5.06,7.603-10.55c-0.749-2.399-2.654-4.303-5.054-5.053C13.06,6.683,8,10.763,8,16H11.098z"></path>
  <polygon fill="#D9A4FC" points="8.554 18.92 8.554 20.91 8.556 20.91 8.557 20.91 10.545 20.91 10.545 18.92"></polygon>
</svg>